<svg width="29" height="28" viewBox="0 0 29 28" fill="none" xmlns="http://www.w3.org/2000/svg">
<path d="M26.1667 10.1383C26.1667 11.5267 25.945 12.81 25.56 14H3.44C3.055 12.81 2.83334 11.5267 2.83334 10.1383C2.83334 6.53333 5.73834 3.61667 9.32 3.61667C11.4317 3.61667 13.3217 4.64334 14.5 6.21834C15.6783 4.64334 17.5683 3.61667 19.68 3.61667C23.2617 3.61667 26.1667 6.53333 26.1667 10.1383Z" fill="#F0F0F0"/>
<path opacity="0.4" d="M25.56 14C23.7167 19.8333 18.035 23.3217 15.2233 24.2783C14.8267 24.4183 14.1733 24.4183 13.7767 24.2783C10.965 23.3217 5.28334 19.8333 3.44 14H25.56Z" fill="#F0F0F0"/>
</svg>
